<mxfile host="app.diagrams.net" agent="Mozilla/5.0 (Windows NT 10.0; Win64; x64) AppleWebKit/537.36 (KHTML, like Gecko) Chrome/131.0.0.0 Safari/537.36" version="25.0.3">
  <diagram name="Page-1" id="SXapoRLN2DPdWOvBoOBn">
    <mxGraphModel dx="1050" dy="522" grid="1" gridSize="10" guides="1" tooltips="1" connect="1" arrows="1" fold="1" page="1" pageScale="1" pageWidth="827" pageHeight="1169" math="0" shadow="0">
      <root>
        <mxCell id="0" />
        <mxCell id="1" parent="0" />
        <mxCell id="iEOfxbo0E36FiP9k_pkh-1" value="Login as user&amp;nbsp;" style="sketch=0;points=[[0,0,0],[0.25,0,0],[0.5,0,0],[0.75,0,0],[1,0,0],[0,1,0],[0.25,1,0],[0.5,1,0],[0.75,1,0],[1,1,0],[0,0.25,0],[0,0.5,0],[0,0.75,0],[1,0.25,0],[1,0.5,0],[1,0.75,0]];outlineConnect=0;fontColor=#232F3E;fillColor=#DD344C;strokeColor=#ffffff;dashed=0;verticalLabelPosition=bottom;verticalAlign=top;align=center;html=1;fontSize=12;fontStyle=0;aspect=fixed;shape=mxgraph.aws4.resourceIcon;resIcon=mxgraph.aws4.identity_and_access_management;" vertex="1" parent="1">
          <mxGeometry x="30" y="220" width="78" height="78" as="geometry" />
        </mxCell>
        <mxCell id="iEOfxbo0E36FiP9k_pkh-3" value="" style="endArrow=classic;html=1;rounded=0;" edge="1" parent="1">
          <mxGeometry relative="1" as="geometry">
            <mxPoint x="110" y="258.5" as="sourcePoint" />
            <mxPoint x="210" y="258.5" as="targetPoint" />
            <Array as="points" />
          </mxGeometry>
        </mxCell>
        <mxCell id="iEOfxbo0E36FiP9k_pkh-5" value="" style="shape=image;verticalLabelPosition=bottom;labelBackgroundColor=default;verticalAlign=top;aspect=fixed;imageAspect=0;image=data:image/png,iVBORw0KGgoAAAANSUhEUgAAAQMAAADCCAMAAAB6zFdcAAAAzFBMVEX///9fQ+lAQLJeQelTMuhbPemMe+5jRuoqKq00NK/p6fXUz/ioqNhdQOlQLehRL+hXN+g5ObD5+P5VNehYOuiIdu7t6vxNKOfw7v2nmvLCuvba1fnSzPgnJ6y9tPVsVOu1td4vL67k4Pt2YOxzc8ODcO3R0eqekPHLxPeyp/NmS+p9aeyXiPBoTupsbMG5r/SsoPLHwPZwWOtWVrkfH6qbm9O5ud9QULigkvGSks+Tg+94YuxFRbT29P5HH+fn4/uGhsrHx+VjY74VFapDYfotAAAFyklEQVR4nO2da3vaOBBGJQwEyILxhZK00EIbQsml7bbbTdJNmr38//+0kmOwsSVbTuwKaeb90g9tkvF5nh5mNCIQgsFgMBgMBoPBYDAYDAbTVE583RXoz2z8UXcJ2nPsuh/e6y5Cc47bdDj68aC7DK1hDCgN219016EzEQPqjDu/665EX54YMArtD29016IrWwaUa+FEdzV6kjBgWnBhaiHNgNLgCKIW9hlQxwWohQwDpoVpF5oWcgwo7UDTgoABpWP6WnddvzJCBqxb+ApIC2IGvFuAowUZA6aF9qnu4n5R5Az4EAFDCwUMwGihkAEQLZQwYFoYWa+FUgasW7BdCwoMrNeCCgOuhckr3ZU2FzUGfIg4tXYTocrAZi2oM6DOz5nuaptJBQa0fay72maCDJ7DYN3k6+Titwa/uSzVGXSnk6ba5/NvfxjCoMOm6iZeJwdnPa9vCgM2VQ/rf5383vNaLXMYNNA+/+n1Wy2zGNQ8VZ9/W7Za5jGocaoenM29lpkMWPsc1qAFPxKBsQyYFt69VAuxCMxl8OKpeicCkxlEWnhut8A7gpYNDPhU/fZZP/t7loDBDLgWqo9Tiz0RGM+Aa2FVTQvnN8s8AbMZ8NXcrboWmAhEBExnwLsFVS3c5UVgCQNVLSz6AhHYwkCpW8h2BNYx4N1CoRZSo4G9DCgNA6kW/LtiAtYwYFq4FmtB2BEcAgO3dgaSbkHSERwAg0caOLUz4FpY72th8EnSERwAA0K+tMP6GTAthJ+Tn+HLO4KDYEAefkzVHqsSA66F7W6uqCM4DAaEvP/LVfkPUY1BpAX+Bf69ggi0MyDko4oWqjKgDuVfMJgrI9DKgJCNW6qF6gyOIgZKNjwEBuThalTydPYzYFq4LNYCBAZMC0dFWoDBgGkhkGsBCgOmBVf2kGAYRN3CEDoDpoULoRZAMZBoARgDpoX8EAGNAZuqL7NagMeAkFlGCxAZZIcImAyInx4igDKIhoitFsAySGkBMANCPo9D8AzIw5oPEbAZ8G5hNITOgGnh+id4BqxbQAZxkAEy4JkEDTKYm8FANFXXxMDrmYGAiKbqWhh4vb9Nehvp7FppY1+JQe9f095OvFHZ2FdgsLz/R/cjVY9fupqrwKBvyOvBNrvfPFq2mlNmYJgIWFbJXaNZycZejYF5IiDdYJpcQSxazakxMFIErE8cJ3eNfPlqToWBaSKIw3vl9M1kPlU/k4E3N00EcZ7mheHoMtHCdVushRIGvU8DfY/xomxnpo6bXEGMD9sqMVjeGCiCOMncmLqC6K9FQ0QBg35voe0JXp7U7Jy6gkherfJakDLw5ndmiiDO3vnBcLR63P7F7F1WCzIG5oogTuYMJX0zOasFMYPl/bm+6utJ7hwpbCdauN0bIkQM+v2FttJrS/4szQkudlp4XKXOFvIMvJ7ZIogjOk9Ma+H4YqeFHAPjRRBHfKbama53H+LwNgyFDJY3xosgjuxcORxvtv/Ev30aIvYY9L2FtprrjvRs3Qmy3UKKgekdwX4K9gtsiEi0wLqFhMH8zA4RxCncsXTcq5QWgpiBPSKIU7Jn2tcC/2Pw30JbsQ2lbNfGuoXdRz5F47VvkQjilO8bh+6l5R/5pLJz7YyurP7IJ7W9c+huyr+VsVHcvTvBkb2fBKd8/8CxVwsV7mB0At3FNpTK91AsDDJABjzIABnwIANkwIMMkAEPMkAGPMgAGfAgA2TAgwyQAQ8yQAY8yAAZ8CADZMAzQQZkU/4+JusZCG8mQ2PwdNcIOgN+12gMnsHuCiJkBkpasJ6BghYAMGBa6BRqAQQD4p8W/TIEGAyYFiZyLUBhUKQFOAzk3QIkBoSIuwVYDMRaAMaAkDd5LYBjQMjrbLcAkAHrFva1AJFBVgswGTAtfE20AJUB08JwDJ4BIdshAjIDctKNtACaQawF4AyYFsIxeAZMC+5Qdwn6c9LVXQEGg8FgMBgMBoPBYDAYTCr/Ayt3f9/A4PxrAAAAAElFTkSuQmCC;" vertex="1" parent="1">
          <mxGeometry x="380" y="220" width="106.8" height="80" as="geometry" />
        </mxCell>
        <mxCell id="iEOfxbo0E36FiP9k_pkh-7" value="" style="edgeStyle=orthogonalEdgeStyle;html=1;endArrow=block;elbow=vertical;startArrow=none;endFill=1;strokeColor=#545B64;rounded=0;" edge="1" parent="1">
          <mxGeometry width="100" relative="1" as="geometry">
            <mxPoint x="470" y="270" as="sourcePoint" />
            <mxPoint x="570" y="270" as="targetPoint" />
          </mxGeometry>
        </mxCell>
        <mxCell id="iEOfxbo0E36FiP9k_pkh-8" value="login with aws credentails" style="shape=image;verticalLabelPosition=bottom;labelBackgroundColor=default;verticalAlign=top;aspect=fixed;imageAspect=0;image=data:image/png,/9j/4AAQSkZJRgABAQAAAQABAAD/2wCEAAkGBxIPEBANERARFQ4WEg8QEBEQDQ8VFhEQFhEXGRYSFRYYHSggGBolGxcXIT0tMSkrLy46Fx8zRDcsOSguLjcBCgoKDg0OGxAQGy0lICYrLS0uMjYtLS0yLzArLS0tLS4tKy0tLS02Ly0tLS0vKy8tLS0rLS0tNS0tLTAvLS8wLf/AABEIAOEA4QMBEQACEQEDEQH/xAAbAAEAAQUBAAAAAAAAAAAAAAAABwIDBAUGAf/EAEEQAAICAAMGAQcKBQMEAwAAAAABAgMEBhEFITFBUWESEyIyUpGhsSM0QmJxcnOBs8EHM7LR8FOCwqLS4fEUFRb/xAAaAQEAAgMBAAAAAAAAAAAAAAAAAwUBBAYC/8QAMxEBAAIBAgMGBAYCAwEBAAAAAAECAwQREiExBSJBUbHRM3GR8DJhcoGh4ULBFCNi8RX/2gAMAwEAAhEDEQA/AJxAAAAAAAAAAAAAAAAAAAAB43pvfACN82/xCkpOjBNaLdK9pPxPpWnu078+XV22m0EbcWX6e6k1naU78GH6+zlcPmnEOS8pda9X6StsTXfc+BYxixxy4Y+kKi2TLPPjtv8AOfd2OzM2X1aKz5WH1npJLtJcfz1NbN2fjvzryn+Po2dP2tmx8r96P5+vv9XXbL29RidFCeln+nPRS/LlL8tSqzaTLi6xy817p9dhz8qzz8p6/fybQ1m4AAAAAAAAAAAAAAAAAAAAAAAAACm2xQi5yajFJylKTSSS4tt8EZiJmdoYmYiN5RPnfOrxXiw2HbjhuEp71K7+0O3Pn0LrSaOMfev19HP67tCcncx9PVxLN9VrcmYeodbhn5kPux+CPcNa3WV0yw3ey80X0aRk/K1+rY3ql2nx9uppZtDiyc45T+XssdP2nnw8p70fn1+vvu7DZWY6MRpFS8Fj+hZom39V8JfEqc2jy4ucxvHnC+03aODPyidp8p/15tuareAAAAAAAAAAAAAAAAAAAAAALOLxMKYStsko1xWspSe5I9VrNp2jq82tFY4rdEP5zzhPHSdNesMInujwdrXCU+3RfvwvNLpIxRxT+L0c5rddOaeGv4fVyxuK5SwzC3Iw9w67C+hD7kP6Ue4a1usrhl5ADA3Gy8yX4fSPi8dfqWNvRfVlxXvXY1M2ixZOe20/l7N/T9o58PLfePKffr6/J2Gysz0X6Rb8nZ6tjSTf1ZcH7n2KnNocuPn1j8vZfabtPDm5TPDPlP8Aqen+/wAm7NNYAAAAAAAAAAAAAAAAAAAxdpbQrw1Ur7pqNceLfN8klzb6HumO17cNY5vGTJXHXitO0Iazbmm3aE9N8MNF/J1a/wDXPrL3L2t32m0tcMfn5uZ1estnt5V8vdz5stIApYelqZh6h12F/lw+5D+lHuGtbrK6ZYAAAAB0GWMwTonGmyTeHbUfOevkm+DT9Xqvz+3Q1mkrkrNqx3vVadn6+2K8UvO9Z/j+vP73kMoXUAAAAAAAAAAAAAAAADX7b2xVgqnfdLSPCMV6U5coxXNkuLFbLbhqizZqYa8VkL5lzFdj7fKWPw1rXyVSfmwX7y7/AAW4vsGnrhrtHXzczqdVfPbeenhDTk7VAAFLDK3Mw9w67C/y4fch/SiSGrbrK4GAAAAAGgNr/wDobvWftZq/8PH5LD/9HKk85x1gAAAAAAAAAAAAADUZkzBTgKvKWPWb1VdSa8Vku3RLm+X26ImwYLZrbVa+o1NMFd7ftCF9u7atxtruulv4QgvRrj6sV/mpf4cNcVeGrmdRqL57cVmtJUAAAAeMMrUzEvcOuwvoQ+5D+lEkdGrbrK6ZYAAAAAApDKZjkXdgGtxe3sLVJ12YiqM1ucXNap9HpwJq6fLaN61nZr31WGk8NrRE/NnYe+FkVOucZQfCUJJp/Y0RWrNZ2mNk1bVtG9Z3hcMPQAAAAAAABoM2Zoq2fXv0lfJfJ1J739aXSPxNnT6a2aeXTzauq1dMFefXwhDG1dpW4q2V90/FY/ZFcoxXJIvseOuOvDVzObLbLbisxD2jAAAABSwytzPMvUOtwvoQ+5D+lEsdGrbrK6ZYAAAAAApDKZzkXdo+zlnT0sLhZdY2XxftjW/39nUt9HoP88kfKPdQ9odp7b48M/Ofb3R8XDn202Dt67BT8dUvMb8+uXozXdcn3/8ARBn01M0bW+ra0usyae29enjCV8vZhpx0Na3pYl59UmvFHv3j3+HA5/Uaa+GdrdPN1Wl1mPUV3r18Ybc120AAAAABy+cs314CPk4aTxbXmw13QT4Ts05duL95t6XSTmneeUNLWayuCNo52++qHMZi532Sutm52SespS4t/su3Iva0ikcNY5Obve17cVp3lZPTwAAAADxgeMMqsLhLL5xpqhKdknpGMVq3/Zd+CPF7RWN7JcdLXtw1jeXVql1/JS9OHyctHr50dz3896JaTFqxMNTJXa8xPhMvT08gAAAAAUgb7PWbJTlPBUNxri3C6ae+bW5wXSPJ9fs41eh0cREZL9fBc9p9oTMzhx9PGfP8vvr8uvDFqowABdw2JnVONtcnGyL1jKL0aZ5tWLRw2jk90vbHaLVnaYSXlXO8MR4aMR4YX7lGfCFj/wCMvc/cUmq0Fsfepzj0dLou065e5k5W/iXZFatgAAA4zO+dY4NPDUNSxbXnPc40rq+s+35vo9/SaOcnet09VdrddGKOGn4vREd90rJSsnJynJuUpSbbk3xbZdRERG0OetabTvPVQZeQAAAAAAG2y5lu/aE/BVHStPSy2Xow/vLsvct5Bn1FMMd7r5NvTaW+eeXTzTHlvLdGz4eGqOtjXylstPHP+0ey+O8o82ovlnezosGnphrtVHe1P59/4136kjo8Pw6/KPRyGf4t/wBVvWWMSIgAAAAAKQNXjapQtsrn6cZzjPX1lJ6sxS0WrEx0Zy1tW81t13WD0jAAAAB2WVc7zw/hoxLlOjcoz4zrX/KPvXfgVuq0EX72PlPqudF2pbH3MvOPPxhJmFxELYRtrkpQktYyi9U0UlqzWdrRzdHS9bxxVneF08vSP8856VPiwmEkndvjbct6q6xh1n35fbwstJouLv36eXmqtbr+DemPr5+SLZSbbbbbbbbb1bb4tsuFFMzPOXgYAAAAAAAdrk/IdmK8OIxPirw3GMeE7V29WPfi+XHU0NTrYp3ac59FnpOz7ZO9k5R6pYweErphGmqEYVxWkYxWiX/kprWm072nmvq0rSOGsbQvHl6RFtT+ff8AjXfqSOqw/Dr8o9HE5/i3/Vb1likiIAAAAADwyO7znlFYtPEU6LFJb1wVyS4PpLTg/wAn1VBo9bOLuX/D6Om7Q7OjPHHT8Xr/AGiu6uUJShKLjOLalGSaaa4povomJjeHM2rNZ2t1UmXkAAAAG2y9mK7Az8Vb1rb1nVJvwy7/AFZd/jwNfUaamaO91823pNZk0893p4w3Ocf4hSsrjRhVOtTj8rbLdJa8a4NcPt9nUr8Og4Lb5Ofkt8/acZKbYv3R3FlkqphWmHl7qZYegAAAC5hsPO2caq4uVknpGMVq2/sMWtFY3no9Upa88NY5pVyfkCFHhxGLUZ38Y1cYVPv68vcu+5lPqddN+7TlHqvtJ2fXH3snOfR3RXLMAARDtT5xf+Nd+pI6rD8Ovyj0cTn+Lf8AVb1ljEiIAAAAADwyymg5B3Tms3ZUhjY+UhpDFJebPlNL6M/78vcbuk1lsM7Tzr99FfrtBXURvHK3n7olxeGnTOVVkXGyL0lGS3p/uvidBS9bxxV6OVyY7Y7TW0bTC0e3gAAAAFMoprR8DHKWYmY5wwb8M471vj70RWrt0bNMkW5T1WlI8pJhWmZednqZlh6AA2uX8v34+zydMfNWnjslqoVru+vbiQ5s9MUb2bGn0181tq/VMeWMr0bPhpBeK5rSy6SXil2Xqx7fHiUefU3zTz6eTodPpaYI2r1828NdsgAABEO1PnF/4136kjq8Pw6/KPRxOf4t/wBVvWWKSIwAAAAAPDImk493QBo80Zarx8N+kb4r5O1Lh9WXWPwNrTaq2C35eMNPWaOmorz5T4SiDaez7MNbKi2PhmvZJcpRfNM6LHlrkrxV6OUzYb4b8F45sU9ogAAAAAMbEYXXfHc+nJni1PJNTLtylh66bnxI0/VUmZY2Vahh2WT8jWYzw33a14XiuU7V9RPhHv7NeJpanW1x92vOfRYaTs+2XvX5V9Ut7PwNeHrjTTCMK48IxXvb4t9+LKW97XnitPNfUpWleGsbQyTy9gAAAAiDanzi/wDGu/UkdXh+HX5R6OJz/Fv+q3rLGJEYAAAAAFJkTUce7oAAarMOwasdX5OxaTWrrsS86Ev3XVc/YyfT6i+G29f3hrarS01FeG37T5Ie23se3B2um2O/jGS9GcfWi/8ANDo8GemavFVymp018F+G3/1ryZrgAAAAAW7qVP7eTPNqxL3S81YkMLNzjVGMpTk9IRgm3J9ElxILdznZt0/7OVUp5N/h5Grw4jGpSt3ONG5wg+s+U5duC7lTqddNu7j6ea70vZ8U72TnPkkIrlmAAAAAAAiDanzjEfjXfqSOrw/Dr8o9HFZ/i3/Vb1likiIAAAAADwyJqOPd0AAMHbO1qcHVLEXT8MFuS+lOXKEVzb/zcSY8VsluGqPLlrirxWlCGac1XY+7ykvNqjqqqU90U+cusn1L3T4IwRy6+LndXqJ1E8+ngwqbVJarjzXQ3a23VlqTWea4enkAAAAADIwGNsw9kbqpuNkd6a+DXNHjJjrkrw2jkkxZb4rcVJ2lKmVM514zSm3SvE9Po2P6jfPt8Sh1Whti71edfT5um0faNM/dtyt6/L2dUaCxAAAAAAARBtT5xiPxrv1JHV4fh1+Uejic/wAW/wCq3rLFJEYAAAAAFJkTWce7oA1eYtvU4Cp3Wve9VXWvSsl0iv35EuHDbLbaqHPnphrxWQhmLb12Ptd1r3LVV1p+bXHou/V8/Yi/w4K4q7Vc5qNRbNbe37NS0SIVMZOL1XERyZmImNpZ9F6mu/NE1bbtW9Jqunp4AAAAAA9TA7zKefHDw0YtuUOEb97lHtP1l34/bxKnVdnRPexfT2Xmi7UmNqZvr7+6R6rIzipxkpRaTjKLTTT4NNcUU0xMTtK+iYmN4VmGQAAAAQ/tX5xiPxr/ANSR1mH4dflHo4rP8W/6ressUkRAAAAAAeGRNZxzumizVmerZ9fin510k/JVJ75Pq/Vj3+JsafT2zW2jp5tfU6muCu89fCEJ7Z2tbjLZX3S8U3uS4RhHlCK5Jf5qy+xYq468NXN5s18tuK0sE9onjDKlowypWqeq4mOjPKeUs7D4hS3fS6dfsJq23a18fD8l49owAAAAAAG/yxmq7Ay8K8/Dt+dVJ8PrQf0X7n7zU1OjpmjfpPn7t/R66+nnbrXy9ktbG2xTjK/K0z1X0ovdKD9WS5M5/Nhvitw2h02DPTNXipLPIkwAAAQ9tX5xiPxr/wBSR1mH4dflHo4rP8W/6ressUkRAAAAAADIkXOWbq9nw8C0nipLWuvXdFevZpwj24v2tcxptLbNO/g67V6uuCPOfJC20cdZibJX3Tc7JPVyfuSXJLoXtKVpXhr0c9kyWyW4rTzY57RgAwy8YFLRhlm7F2LfjbVTh4OU9zlLhGtetKXJe98tSLLlrjjitKfDhvlnhrDrsx5JuwdUboz8rBRXlpRho4S5y09TueNLr65Z4bcp8Pz/ALetZ2bbDXjpzjx/L+nLFgqwAAAAAAGXszaNuFsV1M3Ga6cJL1ZLmiPLirkrw2hLhzXw24qSlfKucKsalVPSvE+o3un3rb4/ZxXfiUGq0VsPOOdfvq6bR6+meNp5W8vZ0xpN8AAQ9tX5xiPxr/1JHWYfh1+Uejis/wAW/wCq3rLFJEQAAAAAHhkc9tbGyxF9uInr45zlJ68t+6P5LRfkamOkUpFY8G9lvN7zaWISIwAAAAdRlHJd2PaslrXhdd9jW+fVVp8emvBd9NDT1Grri5Rzn76t7S6K2bnPKPvomLZGyacHUqKK1GC3vrKXrSfFspMmS2SeK0r7Hirjrw1hmta7nwPCRGmdck+T8WLwsda98rKUt8OsoLnHty+zhdaPX8XcydfCfdQa/s3bfJi6eMezgtS2Uj0AAAAAACMtGmm00001xT6oMxMxO8JBynn7Tw4fGPVcI4jp0Vn9/bzZUars7/LF9Pb2Xmi7U6UzfX390iwmpJSTTi0mmnqmnwaZTTG3KV5E784VBlDu1fnGI/Gv/UkdZh+HX5R6OLz/ABb/AKressUkRAAAAAADIv8A8QspTwts8XWvFhJzcm0v5M5PfGX1W3uf5dNanR6mL1ik9Y/lda7STjtOSvSf4cYbyuAAHsIttRSbbaSSWrbfBJc2N9mYiZnaEl5O/h16OJx0ekoYbX2O3/t9vNFXqdf/AI4/r7LjS9nbd7L9PdJcIqKUUkkkkkloklwSRVLd6AAAR/nbJPj8WLwkfP3ytoivS6yrXrdufLfudtotft3Mk8vCfdS6/s7i/wCzFHPxj2Rs0XSgAwAAAAAAA6LK2brsC1B62YbXfW3vj1db5PtwfbiaWq0dM3OOU+fusdHr74O7POv30S1sjatOLrV1M1KPBrg4y9WS5MoMuK+K3DaHSYs1MteKk7wiravzjEfjX/qSOow/Cr8o9HIZ/i3/AFT6yxSVEAAAAAB4BNdtanFwkk4tOMoySaaa3pp8UcfEzHOHcTETG0oiz3kZ4XxYrDJywvGcN7lT37w+HvLnSazj7l+vqpNZoeDv4+no4UsFYzdkbKuxdqoog5TfHpGPrSf0UR5MtcdeK0pMWG+W3DWEx5QyVTgErZaWYrTfY1uhrxVafDprxfbXQpNRq7ZeUco++q/02jphjfrPn7OpNRuAAAAAAcXnXJixPixOHSWJ4zhuSu/tP48+pZaPXTj7l+np/Sq13Z8Ze/j/ABev9orsg4txkmpJtSi0001xTT4MvoneN4c5MTE7SpDAAAAAAFLDMMnZW17sHYrqJuMua4xnH1ZLmv8ANxBmxUy14bQ2cGe+G3FSW5txDtlK5pJzlKxpcE5vxNL2k1K8NYr5RCDJbivNvOZn6yoPTwAAAAAAAm0453I0By+MyBs+2bs8g4NvVqqycIv/AGp6L8tDbrrc1Y23altDgtO/C3eydk0YSHkqKowhxemrcn1lJ75P7TXyZb5J3tO6fHipjjasbM08JAAAAAAAADlc5ZQhjU7qtIYtLjwVqXCM+/R/4t/R62cM8NudfRX63QVzxxV5W9fmiPFYedU5VWRcbIvSUZLRpnQVtW0cVejmb0tS01tG0rR6eAAAAGB5IwzC1M8ykh0FHoR+7H4HuOiOeq4ZYAAAAAA8MibjjXcgAAAAAAAAAAAAAOezZlavHw8W6GJivk7NOK9SfWPvXtT29Lq7YJ848vZpazRU1EeVvCfdD20cDZh7JUWwcbI8U+a5NPmn1Ojx5K5K8VZ5OYy4rYrcN45sY9owAAApZhmFqZ4l7h0NHoR+7H4EkdEc9VwywAAAAAB4GU3HGu4AAAAAAAAAAAAAAANNmbLtWPr8E/NtWvkrUt8H07x7fB7zZ02pvgtvHTxhrarS01FdrdfCUNbY2Tbg7XRdHSS3prfGcfWi+aOjw5qZa8VXLZ8F8NuG8MElQgAwPGGVqZ4l7h0FHoR+7H4EkdEc9VwywAAAAABm/wD1NvqMg/5GPzbP/Ey+SYTlHYAAAAAAAAAAAAAAAADW7e2LVjanTbHvCa9KuXWL/wA1JsGe+G3FVDnwUzV4boZzDsK3A2+StWsXq67EvNsj1XR9Vy9jOk0+opmrxV/ePJy2p0t8F+G37T5tUTtYA8Zh6WpniXuHQUehH7sfgSR0Rz1XDLAAAAANzlnYcsZatU//AI8WnbPk0voLq37vYaer1UYKf+p6e7c0WktqL/8AmOvt99Ep+Tj6q9iOa3l1e0KzDIAAAAAAAAAAAAAAAAAYe1dmVYuqVF0fFB+2MuUovk0SYstsVuKs80eXFTLXhvHJDWactW4CzSXnUSb8naluf1ZdJfE6PS6quevLr4w5jV6O2nt5x4S0ZtNNSzDMLUzxL3DoaPQj92PwJI6I56rhlgAAZ2y9j34p6VVtx4Ob3QX2yf7asgzajHh/HP7eKfBpcub8Efv4fV2myMj1V6Tvl5WfqLVQX7y+HYqM/ad7csfKP5+/vdd6fsnHXnknin+P7++Tqqq4wShGKjFblGKSSXRJcCsmZmd5WtaxWNo6KzDIAAAAAAAAAAAAAAAAAAAFjHYOu+uVNsFOuS0lGXx7PvyPVL2pbirO0vF6VvWa2jeEO5wylZgJeOOs8K35tmm+DfCE9Offg/cdFpNZXNG08rffRzes0NsE8Uc6/fVzLNyWhC1I8y9w6Gj0Y/dj8D3HRHPVWZYbLZOwsRitHVW/B/qT82C/Pn+Wpr59Viw/inn5eP382zg0mbP+COXn4ffydrsjJNNWkrn5afRrStf7fpfn7Cnz9pZL8qd2P5+vsu9P2Vipzyd6f4+nu6eEFFKKSSW5JLRJdEiumZnnKziIjlCowyAAAAAAAAAAAAAAAAAAAAAAALd9MbIyrnFShJOMoySaafJozW01neGLVi0bSijN2RLcPJ3YWMrMO9/gjrKdXbTjKPfj16u+0uvrkjhycp/iXP6vs62OeLHzj+YclVgpN6S81Ljruf2aFjFd1VN4h12yMuYjE6OFfhr/ANSzWMdO3OX5I182sxYes7z5Q2sGhzZukbR5zydtsjJuHo0lZ8tZ1mvMT7Q4e3Up8/aOXJyr3Y/n6rrT9mYcfO3en8+n0993RpablwK9ZPQAAAAAAAAAAAAAAAAAAAAAAAAAAAANbiP50fyJ6/gQW/G2RAnAAAAAAAAP/9k=;" vertex="1" parent="1">
          <mxGeometry x="220" y="231.5" width="55" height="55" as="geometry" />
        </mxCell>
        <mxCell id="iEOfxbo0E36FiP9k_pkh-23" value="" style="edgeStyle=orthogonalEdgeStyle;rounded=0;orthogonalLoop=1;jettySize=auto;html=1;" edge="1" parent="1" source="iEOfxbo0E36FiP9k_pkh-10" target="iEOfxbo0E36FiP9k_pkh-12">
          <mxGeometry relative="1" as="geometry" />
        </mxCell>
        <mxCell id="iEOfxbo0E36FiP9k_pkh-26" value="" style="edgeStyle=orthogonalEdgeStyle;rounded=0;orthogonalLoop=1;jettySize=auto;html=1;" edge="1" parent="1" source="iEOfxbo0E36FiP9k_pkh-10" target="iEOfxbo0E36FiP9k_pkh-14">
          <mxGeometry relative="1" as="geometry" />
        </mxCell>
        <mxCell id="iEOfxbo0E36FiP9k_pkh-30" value="" style="edgeStyle=orthogonalEdgeStyle;rounded=0;orthogonalLoop=1;jettySize=auto;html=1;" edge="1" parent="1" source="iEOfxbo0E36FiP9k_pkh-10" target="iEOfxbo0E36FiP9k_pkh-29">
          <mxGeometry relative="1" as="geometry" />
        </mxCell>
        <mxCell id="iEOfxbo0E36FiP9k_pkh-10" value="" style="sketch=0;points=[[0,0,0],[0.25,0,0],[0.5,0,0],[0.75,0,0],[1,0,0],[0,1,0],[0.25,1,0],[0.5,1,0],[0.75,1,0],[1,1,0],[0,0.25,0],[0,0.5,0],[0,0.75,0],[1,0.25,0],[1,0.5,0],[1,0.75,0]];outlineConnect=0;fontColor=#232F3E;fillColor=#7AA116;strokeColor=#ffffff;dashed=0;verticalLabelPosition=bottom;verticalAlign=top;align=center;html=1;fontSize=12;fontStyle=0;aspect=fixed;shape=mxgraph.aws4.resourceIcon;resIcon=mxgraph.aws4.s3;" vertex="1" parent="1">
          <mxGeometry x="570" y="230" width="68" height="68" as="geometry" />
        </mxCell>
        <mxCell id="iEOfxbo0E36FiP9k_pkh-11" value="" style="edgeStyle=orthogonalEdgeStyle;html=1;endArrow=block;elbow=vertical;startArrow=none;endFill=1;strokeColor=#545B64;rounded=0;" edge="1" parent="1">
          <mxGeometry width="100" relative="1" as="geometry">
            <mxPoint x="290" y="268.5" as="sourcePoint" />
            <mxPoint x="390" y="268.5" as="targetPoint" />
          </mxGeometry>
        </mxCell>
        <mxCell id="iEOfxbo0E36FiP9k_pkh-22" value="" style="edgeStyle=orthogonalEdgeStyle;rounded=0;orthogonalLoop=1;jettySize=auto;html=1;" edge="1" parent="1" source="iEOfxbo0E36FiP9k_pkh-12" target="iEOfxbo0E36FiP9k_pkh-14">
          <mxGeometry relative="1" as="geometry" />
        </mxCell>
        <mxCell id="iEOfxbo0E36FiP9k_pkh-24" value="" style="edgeStyle=orthogonalEdgeStyle;rounded=0;orthogonalLoop=1;jettySize=auto;html=1;" edge="1" parent="1" source="iEOfxbo0E36FiP9k_pkh-12" target="iEOfxbo0E36FiP9k_pkh-14">
          <mxGeometry relative="1" as="geometry" />
        </mxCell>
        <mxCell id="iEOfxbo0E36FiP9k_pkh-12" value="index.html,error.html,image.jpg" style="sketch=0;outlineConnect=0;fontColor=#232F3E;gradientColor=none;fillColor=#232F3D;strokeColor=none;dashed=0;verticalLabelPosition=bottom;verticalAlign=top;align=center;html=1;fontSize=12;fontStyle=0;aspect=fixed;pointerEvents=1;shape=mxgraph.aws4.source_code;" vertex="1" parent="1">
          <mxGeometry x="690" y="369" width="57" height="78" as="geometry" />
        </mxCell>
        <mxCell id="iEOfxbo0E36FiP9k_pkh-13" value="endpoint" style="sketch=0;outlineConnect=0;fontColor=#232F3E;gradientColor=none;fillColor=#232F3D;strokeColor=none;dashed=0;verticalLabelPosition=bottom;verticalAlign=top;align=center;html=1;fontSize=12;fontStyle=0;aspect=fixed;pointerEvents=1;shape=mxgraph.aws4.internet_alt1;" vertex="1" parent="1">
          <mxGeometry x="496.8" y="520" width="78" height="48" as="geometry" />
        </mxCell>
        <mxCell id="iEOfxbo0E36FiP9k_pkh-25" value="" style="edgeStyle=orthogonalEdgeStyle;rounded=0;orthogonalLoop=1;jettySize=auto;html=1;" edge="1" parent="1" source="iEOfxbo0E36FiP9k_pkh-14" target="iEOfxbo0E36FiP9k_pkh-13">
          <mxGeometry relative="1" as="geometry" />
        </mxCell>
        <mxCell id="iEOfxbo0E36FiP9k_pkh-14" value="Bucket with files" style="sketch=0;outlineConnect=0;fontColor=#232F3E;gradientColor=none;fillColor=#7AA116;strokeColor=none;dashed=0;verticalLabelPosition=bottom;verticalAlign=top;align=center;html=1;fontSize=12;fontStyle=2;aspect=fixed;pointerEvents=1;shape=mxgraph.aws4.bucket;" vertex="1" parent="1">
          <mxGeometry x="550" y="360" width="75" height="78" as="geometry" />
        </mxCell>
        <mxCell id="iEOfxbo0E36FiP9k_pkh-27" value="AWS Cloud" style="points=[[0,0],[0.25,0],[0.5,0],[0.75,0],[1,0],[1,0.25],[1,0.5],[1,0.75],[1,1],[0.75,1],[0.5,1],[0.25,1],[0,1],[0,0.75],[0,0.5],[0,0.25]];outlineConnect=0;gradientColor=none;html=1;whiteSpace=wrap;fontSize=12;fontStyle=0;container=1;pointerEvents=0;collapsible=0;recursiveResize=0;shape=mxgraph.aws4.group;grIcon=mxgraph.aws4.group_aws_cloud_alt;strokeColor=#232F3E;fillColor=none;verticalAlign=top;align=left;spacingLeft=30;fontColor=#232F3E;dashed=0;" vertex="1" parent="1">
          <mxGeometry x="470" y="170" width="370" height="460" as="geometry" />
        </mxCell>
        <mxCell id="iEOfxbo0E36FiP9k_pkh-29" value="IAM PERMISSIONS" style="sketch=0;outlineConnect=0;fontColor=#232F3E;gradientColor=none;fillColor=#DD344C;strokeColor=none;dashed=0;verticalLabelPosition=bottom;verticalAlign=top;align=center;html=1;fontSize=12;fontStyle=0;aspect=fixed;pointerEvents=1;shape=mxgraph.aws4.permissions;" vertex="1" parent="iEOfxbo0E36FiP9k_pkh-27">
          <mxGeometry x="277" y="50" width="62" height="78" as="geometry" />
        </mxCell>
        <mxCell id="iEOfxbo0E36FiP9k_pkh-31" value="" style="edgeStyle=orthogonalEdgeStyle;rounded=0;orthogonalLoop=1;jettySize=auto;html=1;" edge="1" parent="1" source="iEOfxbo0E36FiP9k_pkh-29" target="iEOfxbo0E36FiP9k_pkh-12">
          <mxGeometry relative="1" as="geometry" />
        </mxCell>
      </root>
    </mxGraphModel>
  </diagram>
</mxfile>
